<mxfile host="65bd71144e">
    <diagram id="LPmwuTBm0TxSb9VVFmRt" name="Page-1">
        <mxGraphModel dx="839" dy="658" grid="1" gridSize="10" guides="1" tooltips="1" connect="1" arrows="1" fold="1" page="1" pageScale="1" pageWidth="850" pageHeight="1100" math="0" shadow="0">
            <root>
                <mxCell id="0"/>
                <mxCell id="1" parent="0"/>
                <mxCell id="203" value="Block Validator Network (BVN)" style="rounded=1;whiteSpace=wrap;html=1;verticalAlign=top;fillColor=#338833;fontSize=15;fontStyle=1" vertex="1" parent="1">
                    <mxGeometry x="10" y="420" width="560" height="460" as="geometry"/>
                </mxCell>
                <mxCell id="16" value="User" style="rounded=1;whiteSpace=wrap;html=1;" parent="1" vertex="1">
                    <mxGeometry x="10" y="10" width="80" height="40" as="geometry"/>
                </mxCell>
                <mxCell id="17" value="Some arbitrary client program implementing the Accumulate API. Most likely a DApp." style="rounded=0;whiteSpace=wrap;html=1;" parent="1" vertex="1">
                    <mxGeometry x="10" y="100" width="290" height="50" as="geometry"/>
                </mxCell>
                <mxCell id="18" value="User" style="rounded=1;whiteSpace=wrap;html=1;" parent="1" vertex="1">
                    <mxGeometry x="115" y="10" width="80" height="40" as="geometry"/>
                </mxCell>
                <mxCell id="19" value="User" style="rounded=1;whiteSpace=wrap;html=1;" parent="1" vertex="1">
                    <mxGeometry x="220" y="10" width="80" height="40" as="geometry"/>
                </mxCell>
                <mxCell id="20" value="" style="endArrow=classic;html=1;exitX=0.5;exitY=1;exitDx=0;exitDy=0;entryX=0.25;entryY=0;entryDx=0;entryDy=0;" parent="1" source="16" target="17" edge="1">
                    <mxGeometry width="50" height="50" relative="1" as="geometry">
                        <mxPoint x="470" y="210" as="sourcePoint"/>
                        <mxPoint x="520" y="160" as="targetPoint"/>
                    </mxGeometry>
                </mxCell>
                <mxCell id="21" value="" style="endArrow=classic;html=1;exitX=0.5;exitY=1;exitDx=0;exitDy=0;entryX=0.5;entryY=0;entryDx=0;entryDy=0;" parent="1" source="18" target="17" edge="1">
                    <mxGeometry width="50" height="50" relative="1" as="geometry">
                        <mxPoint x="60" y="60" as="sourcePoint"/>
                        <mxPoint x="131.94000000000005" y="108" as="targetPoint"/>
                    </mxGeometry>
                </mxCell>
                <mxCell id="23" value="" style="endArrow=classic;html=1;exitX=0.5;exitY=1;exitDx=0;exitDy=0;entryX=0.75;entryY=0;entryDx=0;entryDy=0;" parent="1" source="19" target="17" edge="1">
                    <mxGeometry width="50" height="50" relative="1" as="geometry">
                        <mxPoint x="60" y="60" as="sourcePoint"/>
                        <mxPoint x="131.94000000000005" y="108" as="targetPoint"/>
                    </mxGeometry>
                </mxCell>
                <mxCell id="24" value="User" style="rounded=1;whiteSpace=wrap;html=1;" parent="1" vertex="1">
                    <mxGeometry x="380" y="10" width="80" height="40" as="geometry"/>
                </mxCell>
                <mxCell id="25" value="Some arbitrary client program implementing the Accumulate API. Most likely a DApp." style="rounded=0;whiteSpace=wrap;html=1;" parent="1" vertex="1">
                    <mxGeometry x="380" y="100" width="290" height="50" as="geometry"/>
                </mxCell>
                <mxCell id="26" value="User" style="rounded=1;whiteSpace=wrap;html=1;" parent="1" vertex="1">
                    <mxGeometry x="485" y="10" width="80" height="40" as="geometry"/>
                </mxCell>
                <mxCell id="27" value="User" style="rounded=1;whiteSpace=wrap;html=1;" parent="1" vertex="1">
                    <mxGeometry x="590" y="10" width="80" height="40" as="geometry"/>
                </mxCell>
                <mxCell id="28" value="" style="endArrow=classic;html=1;exitX=0.5;exitY=1;exitDx=0;exitDy=0;entryX=0.25;entryY=0;entryDx=0;entryDy=0;" parent="1" source="24" target="25" edge="1">
                    <mxGeometry width="50" height="50" relative="1" as="geometry">
                        <mxPoint x="840" y="210" as="sourcePoint"/>
                        <mxPoint x="890" y="160" as="targetPoint"/>
                    </mxGeometry>
                </mxCell>
                <mxCell id="29" value="" style="endArrow=classic;html=1;exitX=0.5;exitY=1;exitDx=0;exitDy=0;entryX=0.5;entryY=0;entryDx=0;entryDy=0;" parent="1" source="26" target="25" edge="1">
                    <mxGeometry width="50" height="50" relative="1" as="geometry">
                        <mxPoint x="430" y="60" as="sourcePoint"/>
                        <mxPoint x="501.94000000000005" y="108" as="targetPoint"/>
                    </mxGeometry>
                </mxCell>
                <mxCell id="30" value="" style="endArrow=classic;html=1;exitX=0.5;exitY=1;exitDx=0;exitDy=0;entryX=0.75;entryY=0;entryDx=0;entryDy=0;" parent="1" source="27" target="25" edge="1">
                    <mxGeometry width="50" height="50" relative="1" as="geometry">
                        <mxPoint x="430" y="60" as="sourcePoint"/>
                        <mxPoint x="501.94000000000005" y="108" as="targetPoint"/>
                    </mxGeometry>
                </mxCell>
                <mxCell id="51" value="" style="endArrow=none;dashed=1;html=1;" parent="1" edge="1">
                    <mxGeometry width="50" height="50" relative="1" as="geometry">
                        <mxPoint x="10" y="180" as="sourcePoint"/>
                        <mxPoint x="830" y="180" as="targetPoint"/>
                    </mxGeometry>
                </mxCell>
                <mxCell id="65" value="" style="endArrow=classic;startArrow=classic;html=1;curved=1;exitX=1;exitY=0.5;exitDx=0;exitDy=0;entryX=0;entryY=0.5;entryDx=0;entryDy=0;" parent="1" target="60" edge="1">
                    <mxGeometry width="50" height="50" relative="1" as="geometry">
                        <mxPoint x="290" y="335" as="sourcePoint"/>
                        <mxPoint x="200" y="345" as="targetPoint"/>
                        <Array as="points">
                            <mxPoint x="310" y="310"/>
                        </Array>
                    </mxGeometry>
                </mxCell>
                <mxCell id="69" value="" style="endArrow=classic;startArrow=classic;html=1;curved=1;exitX=1;exitY=0.5;exitDx=0;exitDy=0;entryX=0;entryY=0.5;entryDx=0;entryDy=0;" parent="1" target="68" edge="1">
                    <mxGeometry width="50" height="50" relative="1" as="geometry">
                        <mxPoint x="415" y="335" as="sourcePoint"/>
                        <mxPoint x="365" y="345" as="targetPoint"/>
                        <Array as="points">
                            <mxPoint x="450" y="310"/>
                        </Array>
                    </mxGeometry>
                </mxCell>
                <mxCell id="70" value="" style="endArrow=classic;html=1;curved=1;exitX=0.25;exitY=1;exitDx=0;exitDy=0;entryX=0.25;entryY=0.25;entryDx=0;entryDy=0;entryPerimeter=0;" parent="1" source="17" target="169" edge="1">
                    <mxGeometry width="50" height="50" relative="1" as="geometry">
                        <mxPoint x="440" y="410" as="sourcePoint"/>
                        <mxPoint x="490" y="360" as="targetPoint"/>
                    </mxGeometry>
                </mxCell>
                <mxCell id="163" value="" style="endArrow=classic;html=1;" parent="1" edge="1">
                    <mxGeometry width="50" height="50" relative="1" as="geometry">
                        <mxPoint x="735" y="19.5" as="sourcePoint"/>
                        <mxPoint x="805" y="19.5" as="targetPoint"/>
                    </mxGeometry>
                </mxCell>
                <mxCell id="164" value="Transaction&lt;br&gt;Flow" style="text;html=1;strokeColor=none;fillColor=none;align=center;verticalAlign=middle;whiteSpace=wrap;rounded=0;" parent="1" vertex="1">
                    <mxGeometry x="740" y="20" width="60" height="30" as="geometry"/>
                </mxCell>
                <mxCell id="165" value="Client" style="text;html=1;strokeColor=none;fillColor=none;align=center;verticalAlign=middle;whiteSpace=wrap;rounded=0;" vertex="1" parent="1">
                    <mxGeometry x="770" y="150" width="60" height="30" as="geometry"/>
                </mxCell>
                <mxCell id="166" value="Server" style="text;html=1;strokeColor=none;fillColor=none;align=center;verticalAlign=middle;whiteSpace=wrap;rounded=0;" vertex="1" parent="1">
                    <mxGeometry x="770" y="180" width="60" height="30" as="geometry"/>
                </mxCell>
                <mxCell id="169" value="&lt;span&gt;A listening, load-balancing server at some central URL&lt;br&gt;such as &quot;mainNet.defidevs.io&quot;, which acts as a&lt;br&gt;reverse proxy for the set of BVNs.&lt;br&gt;&lt;br&gt;Clients which have the IP address for a specific node can&lt;br&gt;bypass this step and send requests directly to that node.&lt;br&gt;&lt;/span&gt;" style="ellipse;shape=cloud;whiteSpace=wrap;html=1;" vertex="1" parent="1">
                    <mxGeometry x="10" y="200" width="660" height="160" as="geometry"/>
                </mxCell>
                <mxCell id="202" value="" style="group;fillColor=none;fontStyle=1" vertex="1" connectable="0" parent="1">
                    <mxGeometry x="40" y="460" width="160" height="400" as="geometry"/>
                </mxCell>
                <mxCell id="186" value="Node Server" style="rounded=1;whiteSpace=wrap;html=1;verticalAlign=top;fillColor=#333388;fontStyle=1" vertex="1" parent="202">
                    <mxGeometry width="160" height="400" as="geometry"/>
                </mxCell>
                <mxCell id="174" value="Tendermint" style="shape=hexagon;perimeter=hexagonPerimeter2;whiteSpace=wrap;html=1;fixedSize=1;" vertex="1" parent="202">
                    <mxGeometry x="20" y="100" width="120" height="30" as="geometry"/>
                </mxCell>
                <mxCell id="182" value="&lt;br&gt;&lt;div&gt;&lt;span&gt;Data&amp;nbsp; &amp;nbsp;&lt;/span&gt;&lt;/div&gt;Base&amp;nbsp; &amp;nbsp;" style="shape=internalStorage;whiteSpace=wrap;html=1;backgroundOutline=1;align=right;" vertex="1" parent="202">
                    <mxGeometry x="42.5" y="310" width="75" height="70" as="geometry"/>
                </mxCell>
                <mxCell id="183" value="General&lt;br&gt;Executor" style="rounded=0;whiteSpace=wrap;html=1;" vertex="1" parent="202">
                    <mxGeometry x="20" y="160" width="120" height="50" as="geometry"/>
                </mxCell>
                <mxCell id="184" value="Sub&lt;br&gt;Exec" style="rounded=0;whiteSpace=wrap;html=1;" vertex="1" parent="202">
                    <mxGeometry x="10" y="240" width="40" height="40" as="geometry"/>
                </mxCell>
                <mxCell id="187" value="JSONRPC&lt;br&gt;Listener" style="rounded=0;whiteSpace=wrap;html=1;" vertex="1" parent="202">
                    <mxGeometry x="20" y="30" width="120" height="40" as="geometry"/>
                </mxCell>
                <mxCell id="190" value="Sub&lt;br&gt;Exec" style="rounded=0;whiteSpace=wrap;html=1;" vertex="1" parent="202">
                    <mxGeometry x="60" y="240" width="40" height="40" as="geometry"/>
                </mxCell>
                <mxCell id="191" value="Sub&lt;br&gt;Exec" style="rounded=0;whiteSpace=wrap;html=1;" vertex="1" parent="202">
                    <mxGeometry x="110" y="240" width="40" height="40" as="geometry"/>
                </mxCell>
                <mxCell id="193" value="" style="endArrow=classic;html=1;exitX=0.375;exitY=1;exitDx=0;exitDy=0;entryX=0.25;entryY=0;entryDx=0;entryDy=0;" edge="1" parent="202" source="174" target="183">
                    <mxGeometry width="50" height="50" relative="1" as="geometry">
                        <mxPoint x="590" y="560" as="sourcePoint"/>
                        <mxPoint x="640" y="510" as="targetPoint"/>
                    </mxGeometry>
                </mxCell>
                <mxCell id="200" value="" style="endArrow=classic;html=1;exitX=0.75;exitY=0;exitDx=0;exitDy=0;entryX=0.625;entryY=1;entryDx=0;entryDy=0;" edge="1" parent="202" source="183" target="174">
                    <mxGeometry width="50" height="50" relative="1" as="geometry">
                        <mxPoint x="590" y="560" as="sourcePoint"/>
                        <mxPoint x="640" y="510" as="targetPoint"/>
                    </mxGeometry>
                </mxCell>
                <mxCell id="197" style="edgeStyle=none;html=1;exitX=0.5;exitY=1;exitDx=0;exitDy=0;entryX=0.5;entryY=0;entryDx=0;entryDy=0;" edge="1" parent="202" source="184" target="182">
                    <mxGeometry relative="1" as="geometry"/>
                </mxCell>
                <mxCell id="194" value="" style="endArrow=classic;html=1;exitX=0.25;exitY=1;exitDx=0;exitDy=0;entryX=0.5;entryY=0;entryDx=0;entryDy=0;" edge="1" parent="202" source="183" target="184">
                    <mxGeometry width="50" height="50" relative="1" as="geometry">
                        <mxPoint x="590" y="560" as="sourcePoint"/>
                        <mxPoint x="640" y="510" as="targetPoint"/>
                    </mxGeometry>
                </mxCell>
                <mxCell id="192" value="" style="endArrow=classic;html=1;exitX=0.5;exitY=1;exitDx=0;exitDy=0;entryX=0.5;entryY=0;entryDx=0;entryDy=0;" edge="1" parent="202" source="187" target="174">
                    <mxGeometry width="50" height="50" relative="1" as="geometry">
                        <mxPoint x="590" y="560" as="sourcePoint"/>
                        <mxPoint x="640" y="510" as="targetPoint"/>
                    </mxGeometry>
                </mxCell>
                <mxCell id="198" style="edgeStyle=none;html=1;exitX=0.5;exitY=1;exitDx=0;exitDy=0;entryX=0.5;entryY=0;entryDx=0;entryDy=0;" edge="1" parent="202" source="190" target="182">
                    <mxGeometry relative="1" as="geometry"/>
                </mxCell>
                <mxCell id="195" value="" style="endArrow=classic;html=1;exitX=0.5;exitY=1;exitDx=0;exitDy=0;entryX=0.5;entryY=0;entryDx=0;entryDy=0;" edge="1" parent="202" source="183" target="190">
                    <mxGeometry width="50" height="50" relative="1" as="geometry">
                        <mxPoint x="590" y="560" as="sourcePoint"/>
                        <mxPoint x="640" y="510" as="targetPoint"/>
                    </mxGeometry>
                </mxCell>
                <mxCell id="199" style="edgeStyle=none;html=1;exitX=0.5;exitY=1;exitDx=0;exitDy=0;entryX=0.5;entryY=0;entryDx=0;entryDy=0;" edge="1" parent="202" source="191" target="182">
                    <mxGeometry relative="1" as="geometry">
                        <mxPoint x="410" y="800" as="targetPoint"/>
                    </mxGeometry>
                </mxCell>
                <mxCell id="196" style="edgeStyle=none;html=1;exitX=0.75;exitY=1;exitDx=0;exitDy=0;entryX=0.5;entryY=0;entryDx=0;entryDy=0;" edge="1" parent="202" source="183" target="191">
                    <mxGeometry relative="1" as="geometry"/>
                </mxCell>
                <mxCell id="204" value="" style="group;fillColor=none;" vertex="1" connectable="0" parent="1">
                    <mxGeometry x="210" y="460" width="160" height="400" as="geometry"/>
                </mxCell>
                <mxCell id="205" value="Node Server" style="rounded=1;whiteSpace=wrap;html=1;verticalAlign=top;fillColor=#333388;fontStyle=1" vertex="1" parent="204">
                    <mxGeometry width="160" height="400" as="geometry"/>
                </mxCell>
                <mxCell id="206" value="Tendermint" style="shape=hexagon;perimeter=hexagonPerimeter2;whiteSpace=wrap;html=1;fixedSize=1;" vertex="1" parent="204">
                    <mxGeometry x="20" y="100" width="120" height="30" as="geometry"/>
                </mxCell>
                <mxCell id="207" value="&lt;br&gt;&lt;div&gt;&lt;span&gt;Data&amp;nbsp; &amp;nbsp;&lt;/span&gt;&lt;/div&gt;Base&amp;nbsp; &amp;nbsp;" style="shape=internalStorage;whiteSpace=wrap;html=1;backgroundOutline=1;align=right;" vertex="1" parent="204">
                    <mxGeometry x="42.5" y="310" width="75" height="70" as="geometry"/>
                </mxCell>
                <mxCell id="208" value="General&lt;br&gt;Executor" style="rounded=0;whiteSpace=wrap;html=1;" vertex="1" parent="204">
                    <mxGeometry x="20" y="160" width="120" height="50" as="geometry"/>
                </mxCell>
                <mxCell id="209" value="Sub&lt;br&gt;Exec" style="rounded=0;whiteSpace=wrap;html=1;" vertex="1" parent="204">
                    <mxGeometry x="10" y="240" width="40" height="40" as="geometry"/>
                </mxCell>
                <mxCell id="210" value="JSONRPC&lt;br&gt;Listener" style="rounded=0;whiteSpace=wrap;html=1;" vertex="1" parent="204">
                    <mxGeometry x="20" y="30" width="120" height="40" as="geometry"/>
                </mxCell>
                <mxCell id="211" value="Sub&lt;br&gt;Exec" style="rounded=0;whiteSpace=wrap;html=1;" vertex="1" parent="204">
                    <mxGeometry x="60" y="240" width="40" height="40" as="geometry"/>
                </mxCell>
                <mxCell id="212" value="Sub&lt;br&gt;Exec" style="rounded=0;whiteSpace=wrap;html=1;" vertex="1" parent="204">
                    <mxGeometry x="110" y="240" width="40" height="40" as="geometry"/>
                </mxCell>
                <mxCell id="213" value="" style="endArrow=classic;html=1;exitX=0.375;exitY=1;exitDx=0;exitDy=0;entryX=0.25;entryY=0;entryDx=0;entryDy=0;" edge="1" parent="204" source="206" target="208">
                    <mxGeometry width="50" height="50" relative="1" as="geometry">
                        <mxPoint x="590" y="560" as="sourcePoint"/>
                        <mxPoint x="640" y="510" as="targetPoint"/>
                    </mxGeometry>
                </mxCell>
                <mxCell id="214" value="" style="endArrow=classic;html=1;exitX=0.75;exitY=0;exitDx=0;exitDy=0;entryX=0.625;entryY=1;entryDx=0;entryDy=0;" edge="1" parent="204" source="208" target="206">
                    <mxGeometry width="50" height="50" relative="1" as="geometry">
                        <mxPoint x="590" y="560" as="sourcePoint"/>
                        <mxPoint x="640" y="510" as="targetPoint"/>
                    </mxGeometry>
                </mxCell>
                <mxCell id="215" style="edgeStyle=none;html=1;exitX=0.5;exitY=1;exitDx=0;exitDy=0;entryX=0.5;entryY=0;entryDx=0;entryDy=0;" edge="1" parent="204" source="209" target="207">
                    <mxGeometry relative="1" as="geometry"/>
                </mxCell>
                <mxCell id="216" value="" style="endArrow=classic;html=1;exitX=0.25;exitY=1;exitDx=0;exitDy=0;entryX=0.5;entryY=0;entryDx=0;entryDy=0;" edge="1" parent="204" source="208" target="209">
                    <mxGeometry width="50" height="50" relative="1" as="geometry">
                        <mxPoint x="590" y="560" as="sourcePoint"/>
                        <mxPoint x="640" y="510" as="targetPoint"/>
                    </mxGeometry>
                </mxCell>
                <mxCell id="217" value="" style="endArrow=classic;html=1;exitX=0.5;exitY=1;exitDx=0;exitDy=0;entryX=0.5;entryY=0;entryDx=0;entryDy=0;" edge="1" parent="204" source="210" target="206">
                    <mxGeometry width="50" height="50" relative="1" as="geometry">
                        <mxPoint x="590" y="560" as="sourcePoint"/>
                        <mxPoint x="640" y="510" as="targetPoint"/>
                    </mxGeometry>
                </mxCell>
                <mxCell id="218" style="edgeStyle=none;html=1;exitX=0.5;exitY=1;exitDx=0;exitDy=0;entryX=0.5;entryY=0;entryDx=0;entryDy=0;" edge="1" parent="204" source="211" target="207">
                    <mxGeometry relative="1" as="geometry"/>
                </mxCell>
                <mxCell id="219" value="" style="endArrow=classic;html=1;exitX=0.5;exitY=1;exitDx=0;exitDy=0;entryX=0.5;entryY=0;entryDx=0;entryDy=0;" edge="1" parent="204" source="208" target="211">
                    <mxGeometry width="50" height="50" relative="1" as="geometry">
                        <mxPoint x="590" y="560" as="sourcePoint"/>
                        <mxPoint x="640" y="510" as="targetPoint"/>
                    </mxGeometry>
                </mxCell>
                <mxCell id="220" style="edgeStyle=none;html=1;exitX=0.5;exitY=1;exitDx=0;exitDy=0;entryX=0.5;entryY=0;entryDx=0;entryDy=0;" edge="1" parent="204" source="212" target="207">
                    <mxGeometry relative="1" as="geometry">
                        <mxPoint x="410" y="800" as="targetPoint"/>
                    </mxGeometry>
                </mxCell>
                <mxCell id="221" style="edgeStyle=none;html=1;exitX=0.75;exitY=1;exitDx=0;exitDy=0;entryX=0.5;entryY=0;entryDx=0;entryDy=0;" edge="1" parent="204" source="208" target="212">
                    <mxGeometry relative="1" as="geometry"/>
                </mxCell>
                <mxCell id="222" value="" style="group" vertex="1" connectable="0" parent="1">
                    <mxGeometry x="380" y="460" width="160" height="400" as="geometry"/>
                </mxCell>
                <mxCell id="223" value="Node Server" style="rounded=1;whiteSpace=wrap;html=1;verticalAlign=top;fillColor=#333388;fontStyle=1" vertex="1" parent="222">
                    <mxGeometry width="160" height="400" as="geometry"/>
                </mxCell>
                <mxCell id="224" value="Tendermint" style="shape=hexagon;perimeter=hexagonPerimeter2;whiteSpace=wrap;html=1;fixedSize=1;" vertex="1" parent="222">
                    <mxGeometry x="20" y="100" width="120" height="30" as="geometry"/>
                </mxCell>
                <mxCell id="225" value="&lt;br&gt;&lt;div&gt;&lt;span&gt;Data&amp;nbsp; &amp;nbsp;&lt;/span&gt;&lt;/div&gt;Base&amp;nbsp; &amp;nbsp;" style="shape=internalStorage;whiteSpace=wrap;html=1;backgroundOutline=1;align=right;" vertex="1" parent="222">
                    <mxGeometry x="42.5" y="310" width="75" height="70" as="geometry"/>
                </mxCell>
                <mxCell id="226" value="General&lt;br&gt;Executor" style="rounded=0;whiteSpace=wrap;html=1;" vertex="1" parent="222">
                    <mxGeometry x="20" y="160" width="120" height="50" as="geometry"/>
                </mxCell>
                <mxCell id="227" value="Sub&lt;br&gt;Exec" style="rounded=0;whiteSpace=wrap;html=1;" vertex="1" parent="222">
                    <mxGeometry x="10" y="240" width="40" height="40" as="geometry"/>
                </mxCell>
                <mxCell id="228" value="JSONRPC&lt;br&gt;Listener" style="rounded=0;whiteSpace=wrap;html=1;" vertex="1" parent="222">
                    <mxGeometry x="20" y="30" width="120" height="40" as="geometry"/>
                </mxCell>
                <mxCell id="229" value="Sub&lt;br&gt;Exec" style="rounded=0;whiteSpace=wrap;html=1;" vertex="1" parent="222">
                    <mxGeometry x="60" y="240" width="40" height="40" as="geometry"/>
                </mxCell>
                <mxCell id="230" value="Sub&lt;br&gt;Exec" style="rounded=0;whiteSpace=wrap;html=1;" vertex="1" parent="222">
                    <mxGeometry x="110" y="240" width="40" height="40" as="geometry"/>
                </mxCell>
                <mxCell id="231" value="" style="endArrow=classic;html=1;exitX=0.375;exitY=1;exitDx=0;exitDy=0;entryX=0.25;entryY=0;entryDx=0;entryDy=0;" edge="1" parent="222" source="224" target="226">
                    <mxGeometry width="50" height="50" relative="1" as="geometry">
                        <mxPoint x="590" y="560" as="sourcePoint"/>
                        <mxPoint x="640" y="510" as="targetPoint"/>
                    </mxGeometry>
                </mxCell>
                <mxCell id="232" value="" style="endArrow=classic;html=1;exitX=0.75;exitY=0;exitDx=0;exitDy=0;entryX=0.625;entryY=1;entryDx=0;entryDy=0;" edge="1" parent="222" source="226" target="224">
                    <mxGeometry width="50" height="50" relative="1" as="geometry">
                        <mxPoint x="590" y="560" as="sourcePoint"/>
                        <mxPoint x="640" y="510" as="targetPoint"/>
                    </mxGeometry>
                </mxCell>
                <mxCell id="233" style="edgeStyle=none;html=1;exitX=0.5;exitY=1;exitDx=0;exitDy=0;entryX=0.5;entryY=0;entryDx=0;entryDy=0;" edge="1" parent="222" source="227" target="225">
                    <mxGeometry relative="1" as="geometry"/>
                </mxCell>
                <mxCell id="234" value="" style="endArrow=classic;html=1;exitX=0.25;exitY=1;exitDx=0;exitDy=0;entryX=0.5;entryY=0;entryDx=0;entryDy=0;" edge="1" parent="222" source="226" target="227">
                    <mxGeometry width="50" height="50" relative="1" as="geometry">
                        <mxPoint x="590" y="560" as="sourcePoint"/>
                        <mxPoint x="640" y="510" as="targetPoint"/>
                    </mxGeometry>
                </mxCell>
                <mxCell id="235" value="" style="endArrow=classic;html=1;exitX=0.5;exitY=1;exitDx=0;exitDy=0;entryX=0.5;entryY=0;entryDx=0;entryDy=0;" edge="1" parent="222" source="228" target="224">
                    <mxGeometry width="50" height="50" relative="1" as="geometry">
                        <mxPoint x="590" y="560" as="sourcePoint"/>
                        <mxPoint x="640" y="510" as="targetPoint"/>
                    </mxGeometry>
                </mxCell>
                <mxCell id="236" style="edgeStyle=none;html=1;exitX=0.5;exitY=1;exitDx=0;exitDy=0;entryX=0.5;entryY=0;entryDx=0;entryDy=0;" edge="1" parent="222" source="229" target="225">
                    <mxGeometry relative="1" as="geometry"/>
                </mxCell>
                <mxCell id="237" value="" style="endArrow=classic;html=1;exitX=0.5;exitY=1;exitDx=0;exitDy=0;entryX=0.5;entryY=0;entryDx=0;entryDy=0;" edge="1" parent="222" source="226" target="229">
                    <mxGeometry width="50" height="50" relative="1" as="geometry">
                        <mxPoint x="590" y="560" as="sourcePoint"/>
                        <mxPoint x="640" y="510" as="targetPoint"/>
                    </mxGeometry>
                </mxCell>
                <mxCell id="238" style="edgeStyle=none;html=1;exitX=0.5;exitY=1;exitDx=0;exitDy=0;entryX=0.5;entryY=0;entryDx=0;entryDy=0;" edge="1" parent="222" source="230" target="225">
                    <mxGeometry relative="1" as="geometry">
                        <mxPoint x="410" y="800" as="targetPoint"/>
                    </mxGeometry>
                </mxCell>
                <mxCell id="239" style="edgeStyle=none;html=1;exitX=0.75;exitY=1;exitDx=0;exitDy=0;entryX=0.5;entryY=0;entryDx=0;entryDy=0;" edge="1" parent="222" source="226" target="230">
                    <mxGeometry relative="1" as="geometry"/>
                </mxCell>
                <mxCell id="351" style="edgeStyle=none;html=1;exitX=0.13;exitY=0.77;exitDx=0;exitDy=0;exitPerimeter=0;entryX=0.087;entryY=0.005;entryDx=0;entryDy=0;entryPerimeter=0;" edge="1" parent="1" source="169" target="187">
                    <mxGeometry relative="1" as="geometry">
                        <mxPoint x="60" y="490" as="targetPoint"/>
                    </mxGeometry>
                </mxCell>
                <mxCell id="352" value="" style="endArrow=none;html=1;fontSize=15;exitX=1;exitY=0.75;exitDx=0;exitDy=0;entryX=0;entryY=0.75;entryDx=0;entryDy=0;" edge="1" parent="1" source="174" target="206">
                    <mxGeometry width="50" height="50" relative="1" as="geometry">
                        <mxPoint x="240" y="630" as="sourcePoint"/>
                        <mxPoint x="240" y="580" as="targetPoint"/>
                    </mxGeometry>
                </mxCell>
                <mxCell id="355" value="" style="endArrow=none;html=1;fontSize=15;strokeColor=default;exitX=1;exitY=0.25;exitDx=0;exitDy=0;entryX=0;entryY=0.25;entryDx=0;entryDy=0;" edge="1" parent="1" source="174" target="206">
                    <mxGeometry width="50" height="50" relative="1" as="geometry">
                        <mxPoint x="240" y="630" as="sourcePoint"/>
                        <mxPoint x="290" y="580" as="targetPoint"/>
                    </mxGeometry>
                </mxCell>
                <mxCell id="356" value="" style="endArrow=none;html=1;fontSize=15;strokeColor=default;exitX=1;exitY=0.75;exitDx=0;exitDy=0;entryX=0;entryY=0.75;entryDx=0;entryDy=0;" edge="1" parent="1" source="206" target="224">
                    <mxGeometry width="50" height="50" relative="1" as="geometry">
                        <mxPoint x="240" y="630" as="sourcePoint"/>
                        <mxPoint x="290" y="580" as="targetPoint"/>
                    </mxGeometry>
                </mxCell>
                <mxCell id="357" value="" style="endArrow=none;html=1;fontSize=15;strokeColor=default;exitX=1;exitY=0.25;exitDx=0;exitDy=0;entryX=0;entryY=0.25;entryDx=0;entryDy=0;" edge="1" parent="1" source="206" target="224">
                    <mxGeometry width="50" height="50" relative="1" as="geometry">
                        <mxPoint x="240" y="630" as="sourcePoint"/>
                        <mxPoint x="290" y="580" as="targetPoint"/>
                    </mxGeometry>
                </mxCell>
            </root>
        </mxGraphModel>
    </diagram>
</mxfile>